<?xml version="1.0" standalone="no"?>
<!DOCTYPE svg PUBLIC "-//W3C//DTD SVG 20010904//EN"
 "http://www.w3.org/TR/2001/REC-SVG-20010904/DTD/svg10.dtd">
<svg version="1.0" xmlns="http://www.w3.org/2000/svg"
 width="150.000000pt" height="150.000000pt" viewBox="0 0 150.000000 150.000000"
 preserveAspectRatio="xMidYMid meet">

<g transform="translate(0.000000,150.000000) scale(0.100000,-0.100000)"
fill="#000000" stroke="none">
<path d="M666 1350 c-32 -10 -76 -47 -76 -65 0 -9 13 -6 40 7 22 11 56 21 77
23 35 2 35 2 8 -5 -19 -5 -23 -8 -11 -9 11 0 16 -4 13 -8 -4 -3 -1 -13 6 -21
8 -11 8 -14 0 -9 -6 4 -14 3 -18 -3 -3 -5 -22 -10 -41 -10 -21 0 -33 -4 -29
-10 3 -5 -1 -10 -10 -10 -27 0 -68 -48 -62 -72 4 -16 -4 -30 -29 -54 -42 -38
-67 -81 -57 -98 4 -6 9 -42 11 -81 5 -128 2 -165 -15 -183 -18 -18 -16 -33 2
-26 8 4 17 -1 21 -10 5 -13 16 -15 60 -10 30 4 54 3 54 -2 0 -9 -31 -37 -112
-98 -51 -39 -62 -43 -117 -45 -59 -2 -164 -28 -227 -57 -21 -9 -37 -27 -47
-53 -9 -22 -21 -42 -27 -46 -15 -9 -40 -73 -40 -104 0 -14 -9 -37 -20 -51 -17
-21 -20 -41 -20 -132 l0 -108 750 0 750 0 0 204 0 204 -102 13 -103 14 103 3
102 3 0 59 c0 32 -3 61 -8 64 -4 2 -97 7 -207 10 l-199 5 -17 33 c-9 18 -26
41 -37 51 -19 17 -19 17 -26 -22 -3 -23 -20 -56 -41 -81 -19 -23 -54 -69 -77
-101 -22 -33 -44 -59 -48 -59 -13 0 -82 113 -72 119 5 3 13 17 17 31 l7 25
-25 -23 -25 -23 -36 58 c-56 89 -49 94 39 28 65 -49 76 -53 95 -30 9 11 9 15
1 15 -7 0 -10 4 -7 9 4 5 1 11 -5 13 -15 5 -1 35 27 53 26 17 26 17 27 -42 0
-29 1 -29 62 5 31 18 49 34 46 43 -9 36 -1 101 18 145 48 108 67 287 38 357
-36 84 -110 134 -241 161 -86 18 -98 18 -140 6z m116 -212 c5 -14 -15 -38 -30
-38 -12 0 -24 29 -16 41 8 13 42 11 46 -3z m-117 -8 c-3 -5 -10 -10 -16 -10
-5 0 -9 5 -9 10 0 6 7 10 16 10 8 0 12 -4 9 -10z m60 -54 c22 -33 10 -52 -48
-81 -52 -27 -64 -24 -72 13 -2 12 -7 27 -11 34 -11 18 46 58 83 58 23 0 37 -7
48 -24z m275 -33 c0 -36 -1 -37 -15 -16 -8 12 -12 28 -9 37 11 29 24 17 24
-21z m20 -30 c-11 -17 -11 -17 -6 0 3 10 7 26 7 35 1 15 2 15 6 0 2 -10 -1
-25 -7 -35z m-59 -22 c-7 -5 -11 -13 -7 -19 3 -5 -1 -13 -10 -16 -21 -8 -24
-8 -24 3 0 14 29 41 43 41 8 0 7 -3 -2 -9z m212 -428 c-7 -2 -21 -2 -30 0 -10
3 -4 5 12 5 17 0 24 -2 18 -5z m185 -10 c-10 -2 -28 -2 -40 0 -13 2 -5 4 17 4
22 1 32 -1 23 -4z m27 -23 c39 -5 11 -6 -85 -3 -79 2 -146 6 -149 8 -7 8 168
4 234 -5z"/>
<path d="M665 1270 c-8 -13 5 -13 25 0 13 8 13 10 -2 10 -9 0 -20 -4 -23 -10z"/>
<path d="M510 1140 c-17 -32 -6 -46 13 -17 9 15 13 28 7 32 -5 3 -14 -4 -20
-15z"/>
</g>
</svg>
